<?xml version="1.0" encoding="utf-8"?>
<!-- Generator: Adobe Illustrator 17.0.0, SVG Export Plug-In . SVG Version: 6.00 Build 0)  -->
<!DOCTYPE svg PUBLIC "-//W3C//DTD SVG 1.1//EN" "http://www.w3.org/Graphics/SVG/1.1/DTD/svg11.dtd">
<svg version="1.1" id="Layer_1" xmlns="http://www.w3.org/2000/svg" xmlns:xlink="http://www.w3.org/1999/xlink" x="0px" y="0px"
	 width="414px" height="130.5px" viewBox="0 0 414 130.5" enable-background="new 0 0 414 130.5" xml:space="preserve">
<g>
	<path fill="#A42722" d="M103.934,43.785v-8.482c0,0-3.77,0-6.126,0c-2.356,0-7.069-11.31-11.545-13.902
		c-4.477-2.592-62.203,0-62.203,0v4.712l47.124,0.471c5.184,3.063,0.942,6.597,0.942,6.597l-48.066,0.707v5.89
		c0,0,45.71,0.471,48.302,0.707c2.592,0.236,2.827,6.126,0.236,6.597l-48.538,1.178v5.523c0,0,46.653,0,48.302,0
		s2.121,6.729,0,6.965c-2.121,0.236-48.302,0-48.302,0v5.184c0,0,44.015,2.121,59.376,2.121c3.77,0,7.975-5.101,13.002-12.562
		c0.67-0.995,1.633-2.297,2.982-2.366c3.264-0.168,4.515-0.073,4.515-0.073V43.785z"/>
	<path fill="#C51B2A" d="M315.284,43.785v-8.482c0,0,3.77,0,6.126,0s7.069-11.31,11.545-13.902c4.477-2.592,62.203,0,62.203,0v4.712
		l-47.124,0.471c-5.184,3.063-0.942,6.597-0.942,6.597l48.066,0.707v5.89c0,0-45.71,0.471-48.302,0.707
		c-2.592,0.236-2.827,6.126-0.236,6.597l48.538,1.178v5.523c0,0-46.653,0-48.302,0s-2.121,6.729,0,6.965
		c2.121,0.236,48.302,0,48.302,0v5.184c0,0-44.016,2.121-59.376,2.121c-3.77,0-7.975-5.101-13.002-12.562
		c-0.67-0.995-1.633-2.297-2.982-2.366c-3.264-0.168-4.515-0.073-4.515-0.073V43.785z"/>
	<text transform="matrix(0.7038 0 0 1 111.9466 63.5998)" font-family="'Corbel-Bold'" font-size="70.4963">JORDAN</text>
	<g>
		<text transform="matrix(0.7038 0 0 1 111.9466 93.7599)" fill="#C51B2A" font-family="'Corbel-Bold'" font-size="31.1017">WAYS OF COOKING</text>
	</g>
	<g>
		<text transform="matrix(0.8945 0 0 1 51.6292 117.3224)" font-family="'CenturyGothic-Bold'" font-size="15.0796">GOOD VIBES-INDAWOYABANTU-CHEFFY FOODS</text>
	</g>
	<rect x="24.059" y="81.484" width="79.875" height="6.597"/>
	<rect x="312.692" y="81.484" width="80.582" height="6.597"/>
</g>
</svg>
