<?xml version="1.0" encoding="utf-8"?>
<!-- Generator: Adobe Illustrator 17.0.0, SVG Export Plug-In . SVG Version: 6.00 Build 0)  -->
<!DOCTYPE svg PUBLIC "-//W3C//DTD SVG 1.1//EN" "http://www.w3.org/Graphics/SVG/1.1/DTD/svg11.dtd">
<svg version="1.1" id="Layer_1" xmlns="http://www.w3.org/2000/svg" xmlns:xlink="http://www.w3.org/1999/xlink" x="0px" y="0px"
	 width="317.894px" height="98.245px" viewBox="0 0 317.894 98.245" enable-background="new 0 0 317.894 98.245"
	 xml:space="preserve">
<path fill="#FFFFFF" stroke="#000000" stroke-miterlimit="10" d="M34.249,36.362"/>
<linearGradient id="SVGID_1_" gradientUnits="userSpaceOnUse" x1="20.288" y1="46.6879" x2="67.5817" y2="46.6879">
	<stop  offset="0.0056" style="stop-color:#EBC17D"/>
	<stop  offset="0.1775" style="stop-color:#EDCF89"/>
	<stop  offset="0.1854" style="stop-color:#EDD089"/>
	<stop  offset="0.4101" style="stop-color:#F4E8D9"/>
	<stop  offset="0.7303" style="stop-color:#C08329"/>
	<stop  offset="0.8912" style="stop-color:#DCAC68"/>
	<stop  offset="0.9494" style="stop-color:#EABE81"/>
</linearGradient>
<linearGradient id="SVGID_2_" gradientUnits="userSpaceOnUse" x1="19.788" y1="46.6879" x2="68.0817" y2="46.6879">
	<stop  offset="0.0056" style="stop-color:#EBC17D"/>
	<stop  offset="0.1854" style="stop-color:#DFB77C"/>
	<stop  offset="0.5955" style="stop-color:#C08329"/>
	<stop  offset="0.7976" style="stop-color:#DCAC68"/>
	<stop  offset="0.8708" style="stop-color:#EABE81"/>
	<stop  offset="1" style="stop-color:#EEDCC3"/>
</linearGradient>
<path fill="url(#SVGID_1_)" stroke="url(#SVGID_2_)" stroke-miterlimit="10" d="M44.092,53.059
	c-12.614-2.504-23.286-10.425-23.286-23.286c0-12.86,10.425-23.286,23.286-23.286c12.587,0,23.507,5.169,23.486,21.773
	c0,0,0.338,6.82-5.752,6.814c-5.73-0.006-5.589-6.779-5.589-6.779c-0.25-5.776-5.695-10.697-12.145-10.697
	c-6.724,0-12.451,5.501-11.631,12.175c0.94,7.656,5.18,8.648,11.631,10.544 M44.092,53.183c5.685,1.053,10.469,3.724,11.088,10.42
	c0.646,6.988-4.364,12.175-11.088,12.175c-6.388,0-12.129-2.984-12.131-13.388c0-1.19-0.057-6.985-5.579-6.985
	c-5.44,0-6.11,5.128-6.094,7.019c0.148,17.328,10.734,24.464,23.26,24.464c12.86,0,23.286-10.425,23.286-23.286
	c0-12.86-9.717-20.273-22.742-23.286"/>
<radialGradient id="SVGID_3_" cx="45.2034" cy="30.9673" r="17.7652" gradientUnits="userSpaceOnUse">
	<stop  offset="0.0056" style="stop-color:#EBC17D"/>
	<stop  offset="0.1854" style="stop-color:#DFB77C"/>
	<stop  offset="0.5955" style="stop-color:#C08329"/>
	<stop  offset="0.7741" style="stop-color:#E2AE6C"/>
	<stop  offset="0.8708" style="stop-color:#FECE97"/>
	<stop  offset="1" style="stop-color:#EEDCC3"/>
</radialGradient>
<path fill="url(#SVGID_3_)" d="M55.444,24.715c0,0-6.137-6.18-13.617-2.1c-5.98,3.262-5.288,12.197,3.534,16.762
	s9.611,4.603,12.03,6.502c2.419,1.898,4.436,3.926,4.436,3.926s-7.858-4.72-15.197-6.623c-7.339-1.903-12.685-2.763-16.128-10.238
	c-4.38-9.509-0.508-15.409,3.987-18.619c5.708-4.077,10.807-1.674,14.044,0.77C52.972,18.447,55.444,24.715,55.444,24.715z"/>
<radialGradient id="SVGID_4_" cx="520.1237" cy="-184.0089" r="16.7614" gradientTransform="matrix(-1 0 0 -1 563.5428 -121.9838)" gradientUnits="userSpaceOnUse">
	<stop  offset="0.0056" style="stop-color:#EBC17D"/>
	<stop  offset="0.1854" style="stop-color:#DFB77C"/>
	<stop  offset="0.5955" style="stop-color:#C08329"/>
	<stop  offset="0.7741" style="stop-color:#E2AE6C"/>
	<stop  offset="0.8708" style="stop-color:#FECE97"/>
	<stop  offset="1" style="stop-color:#EEDCC3"/>
</radialGradient>
<path fill="url(#SVGID_4_)" d="M32.837,68.235c0,0,6.883,7.774,14.362,3.694c5.98-3.262,5.288-12.197-3.534-16.762
	s-9.611-4.603-12.03-6.502c-2.419-1.898-4.436-3.926-4.436-3.926s7.858,4.72,15.197,6.623S55.713,53.865,58.525,61.6
	c2.692,7.405,0.21,12.259-4.284,15.469c-5.708,4.077-12.8,1.81-16.037-0.634C33.763,73.082,32.837,68.235,32.837,68.235z"/>
<radialGradient id="SVGID_5_" cx="62.2639" cy="24.4267" r="8.3003" gradientTransform="matrix(0.866 -0.5 0.45 0.7794 -2.6502 36.5199)" gradientUnits="userSpaceOnUse">
	<stop  offset="0.0252" style="stop-color:#C08329"/>
	<stop  offset="0.6915" style="stop-color:#DFB77C"/>
	<stop  offset="0.8527" style="stop-color:#E6C390"/>
	<stop  offset="1" style="stop-color:#EACB9F"/>
</radialGradient>
<path fill="url(#SVGID_5_)" stroke="#EACB9F" stroke-miterlimit="10" d="M63.35,13.918c0,0,2.946,6.023,2.209,8.674
	c-0.736,2.651-4.859,2.893-7.069,4.713c-2.211,1.82-1.735,5.655,0.274,6.877c2.009,1.223,5.743,1.108,7.705-1.486
	c1.962-2.594,0.694-11.436-0.381-13.837S63.682,14.326,63.35,13.918z"/>
<radialGradient id="SVGID_6_" cx="-204.4899" cy="-54.7054" r="8.3003" gradientTransform="matrix(-1 0 0 -1.0782 -178.8368 7.7709)" gradientUnits="userSpaceOnUse">
	<stop  offset="0.0252" style="stop-color:#C08329"/>
	<stop  offset="0.6915" style="stop-color:#DFB77C"/>
	<stop  offset="0.8527" style="stop-color:#E6C390"/>
	<stop  offset="1" style="stop-color:#EACB9F"/>
</radialGradient>
<path fill="url(#SVGID_6_)" stroke="#EACB9F" stroke-miterlimit="10" d="M24.566,78.086c0,0-2.946-6.494-2.209-9.353
	c0.736-2.858,4.859-3.119,7.069-5.081c2.211-1.963,1.735-6.097-0.274-7.415c-2.009-1.318-5.743-1.195-7.705,1.602
	s-0.694,12.33,0.381,14.92C22.904,75.348,24.235,77.646,24.566,78.086z"/>
<path stroke="#000000" stroke-width="5" stroke-miterlimit="10" d="M85.82,25.461c0.062,1.858-1.301,3.344-3.468,3.344
	c-1.92,0-3.282-1.486-3.282-3.344c0-1.92,1.424-3.406,3.406-3.406C84.52,22.055,85.82,23.541,85.82,25.461z M79.751,63.856
	c0.016-0.693,0-29.973,0-29.973s0.147-2.246,2.695-2.246s2.755,2.246,2.755,2.246s-0.025,29.176,0,29.973
	c0.025,0.797-0.214,3.216-2.626,3.216C80.014,67.072,79.73,64.788,79.751,63.856z"/>
<path stroke="#000000" stroke-width="5" stroke-miterlimit="10" d="M96.224,33.883c0.323,0.872,6.564,17.711,6.564,17.711
	c0.681,1.982,1.425,4.335,1.92,6.131h0.124c0.557-1.796,1.177-4.087,1.92-6.255l5.945-17.587c0,0,0.862-3.098,3.416-3.098
	c3.484,0,2.343,3.098,2.343,3.098l-8.174,21.365c-3.901,10.28-6.565,15.544-10.28,18.764c-2.663,2.353-5.326,3.282-6.689,3.53
	c0,0-3.179,0.348-3.179-2.542c0-1.755,1.817-2.041,1.817-2.041c1.362-0.433,3.159-1.301,4.768-2.663
	c1.486-1.177,3.344-3.282,4.583-6.069c0.248-0.557,0.434-0.991,0.434-1.301c0-0.31-0.124-0.743-0.372-1.424
	c0,0-10.755-26.767-11.085-27.62c-0.331-0.853-0.287-3.098,2.263-3.098C94.826,30.786,95.901,33.011,96.224,33.883z"/>
<path stroke="#000000" stroke-width="5" stroke-miterlimit="10" d="M278.617,29.18c0.371,1,7.531,20.321,7.531,20.321
	c0.782,2.274,1.634,4.974,2.203,7.034h0.142c0.639-2.06,1.35-4.689,2.202-7.176l6.821-20.179c0,0,0.989-3.554,3.92-3.554
	c3.997,0,2.688,3.554,2.688,3.554l-9.379,24.513c-4.476,11.795-7.532,17.834-11.795,21.529c-3.056,2.7-6.111,3.766-7.674,4.05
	c0,0-3.647,0.399-3.647-2.917c0-2.013,2.084-2.341,2.084-2.341c1.563-0.497,3.624-1.492,5.471-3.055
	c1.705-1.35,3.837-3.766,5.258-6.963c0.284-0.64,0.497-1.137,0.497-1.492c0-0.355-0.142-0.853-0.426-1.634
	c0,0-12.339-30.711-12.719-31.689s-0.33-3.554,2.596-3.554C277.012,25.626,278.246,28.179,278.617,29.18z"/>
<path stroke="#000000" stroke-width="5" stroke-miterlimit="10" d="M139.637,62.792c-0.096-0.646-0.311-2.713-0.311-2.713h-0.186
	c-1.672,2.353-4.892,4.459-9.165,4.459c-6.069,0-9.165-4.273-9.165-8.608c0-7.246,6.441-11.209,18.021-11.147v-0.619
	c0-2.477-0.681-6.936-6.812-6.936c-2.787,0-5.569,0.774-6.958,1.398c-1.199,0.539-3.009,1.267-3.548,0.172
	c-0.6-1.219,0.031-2.02,1.464-2.933c2.019-1.286,6.069-2.663,9.847-2.663c9.165,0,11.395,6.255,11.395,12.262v11.209
	c0,2.601,0.243,4.603,0.26,5.217c0.04,1.452,0.123,2.995-1.929,2.995C140.924,64.885,139.84,64.15,139.637,62.792z M138.955,48.56
	c-5.945-0.124-12.695,0.929-12.695,6.75c0,3.53,2.353,5.202,5.14,5.202c3.901,0,6.379-2.477,7.246-5.016
	c0.186-0.557,0.31-1.177,0.31-1.734V48.56z"/>
<radialGradient id="SVGID_7_" cx="124.1152" cy="79.3112" r="7.4553" gradientUnits="userSpaceOnUse">
	<stop  offset="0.0252" style="stop-color:#C08329"/>
	<stop  offset="1" style="stop-color:#C68D39"/>
	<stop  offset="1" style="stop-color:#EACB9F"/>
</radialGradient>
<linearGradient id="SVGID_8_" gradientUnits="userSpaceOnUse" x1="116.1598" y1="79.3112" x2="132.0705" y2="79.3112">
	<stop  offset="0" style="stop-color:#DFB77C"/>
	<stop  offset="0.0056" style="stop-color:#EBC17D"/>
	<stop  offset="0.1231" style="stop-color:#E2B770"/>
	<stop  offset="0.3565" style="stop-color:#D29E4D"/>
	<stop  offset="0.6103" style="stop-color:#C08329"/>
	<stop  offset="0.8964" style="stop-color:#DCAC68"/>
	<stop  offset="1" style="stop-color:#EABE81"/>
	<stop  offset="1" style="stop-color:#EEDCC3"/>
</linearGradient>
<circle fill="url(#SVGID_7_)" stroke="url(#SVGID_8_)" stroke-miterlimit="10" cx="124.115" cy="79.311" r="7.455"/>
<radialGradient id="SVGID_9_" cx="144.492" cy="79.3112" r="7.4553" gradientUnits="userSpaceOnUse">
	<stop  offset="0.0252" style="stop-color:#C08329"/>
	<stop  offset="1" style="stop-color:#C68D39"/>
	<stop  offset="1" style="stop-color:#EACB9F"/>
</radialGradient>
<linearGradient id="SVGID_10_" gradientUnits="userSpaceOnUse" x1="136.5366" y1="79.3112" x2="152.4473" y2="79.3112">
	<stop  offset="0" style="stop-color:#DFB77C"/>
	<stop  offset="0.0056" style="stop-color:#EBC17D"/>
	<stop  offset="0.1231" style="stop-color:#E2B770"/>
	<stop  offset="0.3565" style="stop-color:#D29E4D"/>
	<stop  offset="0.6103" style="stop-color:#C08329"/>
	<stop  offset="0.8964" style="stop-color:#DCAC68"/>
	<stop  offset="1" style="stop-color:#EABE81"/>
	<stop  offset="1" style="stop-color:#EEDCC3"/>
</linearGradient>
<circle fill="url(#SVGID_9_)" stroke="url(#SVGID_10_)" stroke-miterlimit="10" cx="144.492" cy="79.311" r="7.455"/>
<radialGradient id="SVGID_11_" cx="163.7017" cy="79.3112" r="7.4553" gradientUnits="userSpaceOnUse">
	<stop  offset="0.0252" style="stop-color:#C08329"/>
	<stop  offset="1" style="stop-color:#C68D39"/>
	<stop  offset="1" style="stop-color:#EACB9F"/>
</radialGradient>
<linearGradient id="SVGID_12_" gradientUnits="userSpaceOnUse" x1="155.7463" y1="79.3112" x2="171.657" y2="79.3112">
	<stop  offset="0" style="stop-color:#DFB77C"/>
	<stop  offset="0.0056" style="stop-color:#EBC17D"/>
	<stop  offset="0.1231" style="stop-color:#E2B770"/>
	<stop  offset="0.3565" style="stop-color:#D29E4D"/>
	<stop  offset="0.6103" style="stop-color:#C08329"/>
	<stop  offset="0.8964" style="stop-color:#DCAC68"/>
	<stop  offset="1" style="stop-color:#EABE81"/>
	<stop  offset="1" style="stop-color:#EEDCC3"/>
</linearGradient>
<circle fill="url(#SVGID_11_)" stroke="url(#SVGID_12_)" stroke-miterlimit="10" cx="163.702" cy="79.311" r="7.455"/>
<linearGradient id="SVGID_13_" gradientUnits="userSpaceOnUse" x1="256.8005" y1="38.2628" x2="288.0806" y2="38.2628" gradientTransform="matrix(1.1863 0 0 1.1613 -146.6409 -0.5012)">
	<stop  offset="0.0252" style="stop-color:#C08329"/>
	<stop  offset="1" style="stop-color:#FCD48B"/>
</linearGradient>
<linearGradient id="SVGID_14_" gradientUnits="userSpaceOnUse" x1="157.5136" y1="43.9316" x2="195.6227" y2="43.9316">
	<stop  offset="0" style="stop-color:#DFB77C"/>
	<stop  offset="0.0056" style="stop-color:#EBC17D"/>
	<stop  offset="0.1231" style="stop-color:#E2B770"/>
	<stop  offset="0.3565" style="stop-color:#D29E4D"/>
	<stop  offset="0.6103" style="stop-color:#C08329"/>
	<stop  offset="0.8964" style="stop-color:#DCAC68"/>
	<stop  offset="1" style="stop-color:#EABE81"/>
	<stop  offset="1" style="stop-color:#EEDCC3"/>
</linearGradient>
<path fill="url(#SVGID_13_)" stroke="url(#SVGID_14_)" stroke-miterlimit="10" d="M176.568,19.483c5.14,0,9.518,1.772,13.132,5.314
	c3.615,3.543,5.422,7.834,5.422,12.871c0,5.038-1.808,9.329-5.422,12.871c-3.615,3.543-7.993,5.314-13.132,5.314
	c-3.024,0-4.406-0.066-8.267-0.015l0.021,7.491c0,1.4-0.502,2.593-1.505,3.576c-1.004,0.983-2.22,1.475-3.649,1.475
	c-1.429,0-2.646-0.492-3.649-1.475c-1.004-0.984-1.505-2.176-1.505-3.576V24.534c0-1.4,0.501-2.593,1.505-3.576
	c1.003-0.983,2.22-1.475,3.649-1.475C164.597,19.483,173.214,19.483,176.568,19.483z"/>
<linearGradient id="SVGID_15_" gradientUnits="userSpaceOnUse" x1="263.5644" y1="15.1844" x2="281.0177" y2="46.0676" gradientTransform="matrix(1.1863 0 0 1.1613 -146.6409 -0.5012)">
	<stop  offset="0.0056" style="stop-color:#EBC17D"/>
	<stop  offset="0.1775" style="stop-color:#EDCF89"/>
	<stop  offset="0.1854" style="stop-color:#EDD089"/>
	<stop  offset="0.4101" style="stop-color:#F4E8D9"/>
	<stop  offset="0.7303" style="stop-color:#C08329"/>
	<stop  offset="0.8912" style="stop-color:#DCAC68"/>
	<stop  offset="0.9494" style="stop-color:#EABE81"/>
</linearGradient>
<path fill="url(#SVGID_15_)" d="M176.579,19.483c5.14,0,9.518,1.772,13.132,5.314c3.615,3.543,5.422,7.834,5.422,12.871
	c0,5.038-1.808,9.329-5.422,12.871c-3.615,3.543-7.993,5.314-13.132,5.314c-3.024,0-4.406-0.066-8.267-0.015
	c0,0,10.849,1.418,19.56-9.15c5.217-6.33,6.45-16.617-1.767-23.472c-3.283-2.738-9.746-3.533-14.138-1.161
	c-2.456,1.327-5.541,6.387-9.152,6.242c-4.113-0.166-4.79-3.763-4.79-3.763c0-1.4,0.501-2.593,1.505-3.576
	c1.003-0.983,2.22-1.475,3.649-1.475C164.608,19.483,173.225,19.483,176.579,19.483z"/>
<path d="M207.43,49.45c0.847,0.796,1.875,1.309,3.084,1.537c1.701,0.321,3.52,0.043,5.457-0.833c1.937-0.876,3.526-0.38,4.765,1.488
	c1.239,1.868,0.562,3.687-2.032,5.458c-2.594,1.771-5.808,2.294-9.64,1.572c-3.832-0.723-6.842-2.686-9.028-5.889
	c-2.187-3.203-2.918-6.721-2.195-10.553c0.723-3.832,2.686-6.841,5.889-9.028c3.203-2.186,6.721-2.918,10.553-2.195
	c3.832,0.723,6.639,2.378,8.423,4.963c1.243,1.848,1.722,3.752,1.437,5.715c-0.308,1.406-1.095,2.319-2.363,2.738L207.43,49.45z
	 M215.73,39.875c-0.927-0.599-1.893-0.994-2.896-1.183c-1.701-0.321-3.258,0.001-4.671,0.965c-1.365,0.931-2.23,2.201-2.596,3.808
	L215.73,39.875z"/>
<path d="M234.217,38.986v15.797c0,1.085-0.381,2.007-1.142,2.768c-0.762,0.762-1.684,1.142-2.769,1.142
	c-1.084,0-2.007-0.38-2.768-1.142c-0.761-0.761-1.142-1.684-1.142-2.768V34.45c0-1.084,0.38-2.007,1.142-2.768
	c0.761-0.761,1.684-1.142,2.768-1.142c1.084,0,2.116,0.584,3.097,1.752c1.293-1.168,3.023-1.752,5.193-1.752
	c1.752,0,3.076,0.449,3.973,1.345c0.896,0.897,1.345,2.013,1.345,3.347c0,1.335-0.396,2.451-1.189,3.347
	c-0.793,0.897-1.856,1.345-3.191,1.345c-1.335,0-2.502-0.396-3.503-1.189C235.218,38.256,234.613,38.339,234.217,38.986z"/>
<path d="M260.494,58.693c-3.9,0-7.221-1.371-9.963-4.113c-2.743-2.742-4.114-6.063-4.114-9.963c0-3.899,1.371-7.221,4.114-9.963
	c2.742-2.742,6.063-4.113,9.963-4.113c3.899,0,6.96,1.11,9.181,3.331c2.221,2.221,2.549,4.135,0.985,5.74
	c-1.564,1.606-3.217,1.799-4.958,0.579c-1.741-1.22-3.477-1.83-5.208-1.83c-1.731,0-3.206,0.61-4.426,1.83
	c-1.22,1.22-1.83,2.696-1.83,4.426c0,1.731,0.61,3.206,1.83,4.426c1.22,1.22,2.695,1.83,4.426,1.83c1.731,0,3.467-0.61,5.208-1.83
	c1.741-1.22,3.394-1.027,4.958,0.579c1.564,1.606,1.236,3.519-0.985,5.74C267.454,57.582,264.393,58.693,260.494,58.693z"/>
<path d="M254.432,84.281h-68.589c-0.732,0-4.949-0.858-4.949-4.97c0-4.429,4.217-4.97,4.949-4.97h68.589
	c0.732,0,4.591,0.615,4.591,4.97C259.023,83.129,255.164,84.281,254.432,84.281z"/>
</svg>
